<?xml version="1.0" encoding="UTF-8" standalone="no"?>
<svg
   xmlns:dc="http://purl.org/dc/elements/1.1/"
   xmlns:cc="http://creativecommons.org/ns#"
   xmlns:rdf="http://www.w3.org/1999/02/22-rdf-syntax-ns#"
   xmlns:svg="http://www.w3.org/2000/svg"
   xmlns="http://www.w3.org/2000/svg"
   xmlns:sodipodi="http://sodipodi.sourceforge.net/DTD/sodipodi-0.dtd"
   xmlns:inkscape="http://www.inkscape.org/namespaces/inkscape"
   height="24"
   viewBox="0 -960 960 960"
   width="24"
   version="1.1"
   id="svg4"
   sodipodi:docname="addShoppingCartIcon.svg"
   inkscape:version="0.92.3 (2405546, 2018-03-11)">
  <metadata
     id="metadata10">
    <rdf:RDF>
      <cc:Work
         rdf:about="">
        <dc:format>image/svg+xml</dc:format>
        <dc:type
           rdf:resource="http://purl.org/dc/dcmitype/StillImage" />
        <dc:title></dc:title>
      </cc:Work>
    </rdf:RDF>
  </metadata>
  <defs
     id="defs8" />
  <sodipodi:namedview
     pagecolor="#ffffff"
     bordercolor="#666666"
     borderopacity="1"
     objecttolerance="10"
     gridtolerance="10"
     guidetolerance="10"
     inkscape:pageopacity="0"
     inkscape:pageshadow="2"
     inkscape:window-width="1003"
     inkscape:window-height="1048"
     id="namedview6"
     showgrid="false"
     inkscape:pagecheckerboard="true"
     inkscape:zoom="13.906433"
     inkscape:cx="13.229865"
     inkscape:cy="8.6534118"
     inkscape:window-x="953"
     inkscape:window-y="0"
     inkscape:window-maximized="0"
     inkscape:current-layer="svg4" />
  <path
     d="M 440,-600 V -720 H 320 v -80 h 120 v -120 h 80 v 120 h 120 v 80 H 520 v 120 z"
     id="path1384"
     style="fill:#f7e5c3;fill-opacity:1;stroke:#000000;stroke-opacity:1;stroke-width:40;stroke-miterlimit:4;stroke-dasharray:none" />
  <path
     d="m 280,-80 q -33,0 -56.5,-23.5 Q 200,-127 200,-160 q 0,-33 23.5,-56.5 23.5,-23.5 56.5,-23.5 33,0 56.5,23.5 23.5,23.5 23.5,56.5 0,33 -23.5,56.5 Q 313,-80 280,-80 Z"
     id="path1382"
     style="fill:#e24a6e;fill-opacity:1;stroke:#000000;stroke-opacity:1;stroke-width:40;stroke-miterlimit:4;stroke-dasharray:none" />
  <path
     d="m 680,-80 q -33,0 -56.5,-23.5 Q 600,-127 600,-160 q 0,-33 23.5,-56.5 23.5,-23.5 56.5,-23.5 33,0 56.5,23.5 23.5,23.5 23.5,56.5 0,33 -23.5,56.5 Q 713,-80 680,-80 Z"
     id="path1380"
     style="fill:#8380c6;fill-opacity:1;stroke-width:40;stroke-miterlimit:4;stroke-dasharray:none;stroke:#000000;stroke-opacity:1" />
  <path
     d="m 280,-280 q -45,0 -69,-39.5 -24,-39.5 -1,-78.5 l 54,-98 -144,-304 H 40 v -80 h 131 l 170,360 h 281 l 155,-280 70,38 -155,280 q -11,20 -29,31 -18,11 -41,11 H 324 l -44,80 h 480 v 80 z"
     id="path2" />
</svg>
