<?xml version="1.0" encoding="UTF-8" standalone="no"?>
<svg
   xmlns:dc="http://purl.org/dc/elements/1.1/"
   xmlns:cc="http://creativecommons.org/ns#"
   xmlns:rdf="http://www.w3.org/1999/02/22-rdf-syntax-ns#"
   xmlns:svg="http://www.w3.org/2000/svg"
   xmlns="http://www.w3.org/2000/svg"
   xmlns:sodipodi="http://sodipodi.sourceforge.net/DTD/sodipodi-0.dtd"
   xmlns:inkscape="http://www.inkscape.org/namespaces/inkscape"
   height="24"
   viewBox="0 -960 960 960"
   width="24"
   version="1.1"
   id="svg4"
   sodipodi:docname="agenderIcon.svg"
   inkscape:version="0.92.3 (2405546, 2018-03-11)">
  <metadata
     id="metadata10">
    <rdf:RDF>
      <cc:Work
         rdf:about="">
        <dc:format>image/svg+xml</dc:format>
        <dc:type
           rdf:resource="http://purl.org/dc/dcmitype/StillImage" />
        <dc:title></dc:title>
      </cc:Work>
    </rdf:RDF>
  </metadata>
  <defs
     id="defs8" />
  <sodipodi:namedview
     pagecolor="#ffffff"
     bordercolor="#666666"
     borderopacity="1"
     objecttolerance="10"
     gridtolerance="10"
     guidetolerance="10"
     inkscape:pageopacity="0"
     inkscape:pageshadow="2"
     inkscape:window-width="958"
     inkscape:window-height="1048"
     id="namedview6"
     showgrid="false"
     inkscape:pagecheckerboard="true"
     inkscape:zoom="9.8333333"
     inkscape:cx="12"
     inkscape:cy="12"
     inkscape:window-x="953"
     inkscape:window-y="0"
     inkscape:window-maximized="0"
     inkscape:current-layer="svg4" />
  <path
     d="m 480,-26.440678 q -125.9887,0 -214.18079,-88.192092 -88.19209,-88.19209 -88.19209,-214.18079 0,-113.38983 72.4435,-197.17232 72.4435,-83.78248 179.5339,-101.4209 v -306.15254 h 100.79096 v 306.15254 q 108.35028,17.63842 180.16384,101.4209 71.81356,83.78249 71.81356,197.17232 0,125.9887 -88.19209,214.18079 Q 605.9887,-26.440678 480,-26.440678 Z m 0,-100.790962 q 70.55367,0 124.09887,-42.83616 53.5452,-42.83615 71.18362,-108.35028 H 284.71751 q 17.63842,65.51413 71.18362,108.35028 53.5452,42.83616 124.09887,42.83616 z M 284.71751,-379.20904 H 675.28249 Q 657.64407,-444.72316 604.09887,-487.55932 550.55367,-530.39548 480,-530.39548 q -70.55367,0 -124.09887,42.83616 -53.5452,42.83616 -71.18362,108.35028 z"
     id="path2"
     inkscape:connector-curvature="0"
     style="stroke-width:1.25988698" />
</svg>
