<?xml version="1.0" encoding="UTF-8" standalone="no"?>
<svg
   xmlns:dc="http://purl.org/dc/elements/1.1/"
   xmlns:cc="http://creativecommons.org/ns#"
   xmlns:rdf="http://www.w3.org/1999/02/22-rdf-syntax-ns#"
   xmlns:svg="http://www.w3.org/2000/svg"
   xmlns="http://www.w3.org/2000/svg"
   xmlns:sodipodi="http://sodipodi.sourceforge.net/DTD/sodipodi-0.dtd"
   xmlns:inkscape="http://www.inkscape.org/namespaces/inkscape"
   height="24"
   viewBox="0 -960 960 960"
   width="24"
   version="1.1"
   id="svg4"
   sodipodi:docname="femaleIcon.svg"
   inkscape:version="0.92.3 (2405546, 2018-03-11)">
  <metadata
     id="metadata10">
    <rdf:RDF>
      <cc:Work
         rdf:about="">
        <dc:format>image/svg+xml</dc:format>
        <dc:type
           rdf:resource="http://purl.org/dc/dcmitype/StillImage" />
        <dc:title></dc:title>
      </cc:Work>
    </rdf:RDF>
  </metadata>
  <defs
     id="defs8" />
  <sodipodi:namedview
     pagecolor="#ffffff"
     bordercolor="#666666"
     borderopacity="1"
     objecttolerance="10"
     gridtolerance="10"
     guidetolerance="10"
     inkscape:pageopacity="0"
     inkscape:pageshadow="2"
     inkscape:window-width="958"
     inkscape:window-height="1048"
     id="namedview6"
     showgrid="false"
     inkscape:pagecheckerboard="true"
     inkscape:zoom="9.8333333"
     inkscape:cx="12"
     inkscape:cy="12"
     inkscape:window-x="953"
     inkscape:window-y="0"
     inkscape:window-maximized="0"
     inkscape:current-layer="svg4" />
  <path
     d="M 428.84262,-41.433418 V -143.7482 H 326.52785 v -102.31477 h 102.31477 v -107.43051 q -101.03584,-17.90508 -165.62204,-96.55956 -64.5862,-78.65448 -64.5862,-182.24818 0,-116.38306 82.49129,-197.5954 82.49128,-81.21235 198.87433,-81.21235 116.38305,0 198.87433,81.21235 82.49129,81.21234 82.49129,197.5954 0,103.5937 -64.5862,182.24818 -64.5862,78.65448 -165.62204,96.55956 v 107.43051 H 633.47215 V -143.7482 H 531.15738 V -41.433418 Z M 480,-450.69251 q 74.17821,0 126.61453,-52.43632 52.43632,-52.43632 52.43632,-126.61452 0,-74.17821 -52.43632,-126.61453 Q 554.17821,-808.7942 480,-808.7942 q -74.17821,0 -126.61453,52.43632 -52.43632,52.43632 -52.43632,126.61453 0,74.1782 52.43632,126.61452 52.43632,52.43632 126.61453,52.43632 z"
     id="path2"
     style="fill:#e24a6e;fill-opacity:1;stroke:#000000;stroke-width:25.57869339;stroke-miterlimit:4;stroke-dasharray:none;stroke-opacity:1"
     inkscape:connector-curvature="0" />
</svg>
