<?xml version="1.0" encoding="UTF-8" standalone="no"?>
<!-- Created with Inkscape (http://www.inkscape.org/) -->

<svg
   xmlns:dc="http://purl.org/dc/elements/1.1/"
   xmlns:cc="http://creativecommons.org/ns#"
   xmlns:rdf="http://www.w3.org/1999/02/22-rdf-syntax-ns#"
   xmlns:svg="http://www.w3.org/2000/svg"
   xmlns="http://www.w3.org/2000/svg"
   xmlns:sodipodi="http://sodipodi.sourceforge.net/DTD/sodipodi-0.dtd"
   xmlns:inkscape="http://www.inkscape.org/namespaces/inkscape"
   width="80"
   height="80"
   viewBox="0 0 21.166666 21.166667"
   version="1.1"
   id="svg8"
   sodipodi:docname="logoIcon.svg"
   inkscape:version="0.92.3 (2405546, 2018-03-11)">
  <defs
     id="defs2" />
  <sodipodi:namedview
     id="base"
     pagecolor="#ffffff"
     bordercolor="#666666"
     borderopacity="1.0"
     inkscape:pageopacity="0.0"
     inkscape:pageshadow="2"
     inkscape:zoom="4"
     inkscape:cx="39.85736"
     inkscape:cy="43.586462"
     inkscape:document-units="px"
     inkscape:current-layer="layer1"
     showgrid="false"
     inkscape:pagecheckerboard="true"
     units="px"
     inkscape:window-width="1920"
     inkscape:window-height="1057"
     inkscape:window-x="-8"
     inkscape:window-y="-8"
     inkscape:window-maximized="1"
     showguides="false"
     inkscape:guide-bbox="true"
     fit-margin-top="0"
     fit-margin-left="0"
     fit-margin-right="0"
     fit-margin-bottom="0"
     width="80mm">
    <sodipodi:guide
       position="10.582203,-1.2277694"
       orientation="1,0"
       id="guide853"
       inkscape:locked="false" />
    <sodipodi:guide
       position="3.9439453,10.583333"
       orientation="0,1"
       id="guide855"
       inkscape:locked="false" />
    <sodipodi:guide
       position="10.582203,8.3722181"
       orientation="0,1"
       id="guide1013"
       inkscape:locked="false" />
    <sodipodi:guide
       position="5.6126599,5.9868375"
       orientation="1,0"
       id="guide1015"
       inkscape:locked="false" />
    <sodipodi:guide
       position="15.668676,3.3208239"
       orientation="1,0"
       id="guide1017"
       inkscape:locked="false" />
  </sodipodi:namedview>
  <metadata
     id="metadata5">
    <rdf:RDF>
      <cc:Work
         rdf:about="">
        <dc:format>image/svg+xml</dc:format>
        <dc:type
           rdf:resource="http://purl.org/dc/dcmitype/StillImage" />
        <dc:title></dc:title>
      </cc:Work>
    </rdf:RDF>
  </metadata>
  <g
     inkscape:label="Layer 1"
     inkscape:groupmode="layer"
     id="layer1"
     transform="translate(-0.1739852,-274.23838)">
    <g
       id="g1011">
      <ellipse
         ry="10.558817"
         rx="10.321939"
         cy="284.83453"
         cx="10.791266"
         id="path859-0"
         style="fill:#000000;fill-opacity:1;stroke:none;stroke-width:0;stroke-linecap:butt;stroke-linejoin:round;stroke-miterlimit:4;stroke-dasharray:none;stroke-opacity:1;paint-order:stroke markers fill" />
      <g
         transform="matrix(0.9059928,0,0,0.9059928,1.0150064,26.778095)"
         id="g999">
        <ellipse
           style="fill:#4c4f56;fill-opacity:1;stroke:none;stroke-width:0;stroke-linecap:butt;stroke-linejoin:round;stroke-miterlimit:4;stroke-dasharray:none;stroke-opacity:1;paint-order:stroke markers fill"
           id="path859"
           cx="10.802829"
           cy="284.82172"
           rx="10.184771"
           ry="10.4185" />
        <path
           style="fill:#000000;fill-opacity:1;stroke:none;stroke-width:0;stroke-linecap:butt;stroke-linejoin:round;stroke-miterlimit:4;stroke-dasharray:none;stroke-opacity:1;paint-order:stroke markers fill"
           id="path859-6"
           sodipodi:type="arc"
           sodipodi:cx="10.791398"
           sodipodi:cy="284.78778"
           sodipodi:rx="10.184771"
           sodipodi:ry="10.4185"
           sodipodi:start="6.1905462"
           sodipodi:end="3.2399527"
           sodipodi:open="true"
           d="m 20.932497,283.824 a 10.184771,10.4185 0 0 1 -4.795339,9.83177 10.184771,10.4185 0 0 1 -10.7410269,-0.0314 10.184771,10.4185 0 0 1 -4.74027605,-9.85968" />
        <path
           style="fill:#4c4f56;fill-opacity:1;stroke:none;stroke-width:0;stroke-linecap:butt;stroke-linejoin:round;stroke-miterlimit:4;stroke-dasharray:none;stroke-opacity:1;paint-order:stroke markers fill"
           id="path859-2"
           sodipodi:type="arc"
           sodipodi:cx="10.791399"
           sodipodi:cy="284.88132"
           sodipodi:rx="10.184771"
           sodipodi:ry="10.4185"
           sodipodi:start="0.1019557"
           sodipodi:end="3.0481006"
           sodipodi:open="true"
           d="M 20.92328,285.9417 A 10.184771,10.4185 0 0 1 10.748299,295.29972 10.184771,10.4185 0 0 1 0.65110734,285.85395" />
        <ellipse
           style="fill:#000000;fill-opacity:1;stroke:none;stroke-width:0;stroke-linecap:butt;stroke-linejoin:round;stroke-miterlimit:4;stroke-dasharray:none;stroke-opacity:1;paint-order:stroke markers fill"
           id="path882"
           cx="10.757107"
           cy="284.82172"
           rx="3.1349976"
           ry="3.2069426" />
        <ellipse
           style="fill:#4c4f56;fill-opacity:1;stroke:none;stroke-width:0;stroke-linecap:butt;stroke-linejoin:round;stroke-miterlimit:4;stroke-dasharray:none;stroke-opacity:1;paint-order:stroke markers fill"
           id="path884"
           cx="10.757107"
           cy="284.82172"
           rx="1.9721886"
           ry="2.0174482" />
        <circle
           style="fill:none;fill-opacity:1;stroke:#000000;stroke-width:0.39793333;stroke-linecap:butt;stroke-linejoin:round;stroke-miterlimit:4;stroke-dasharray:none;stroke-opacity:1;paint-order:stroke markers fill"
           id="path893"
           cx="10.756188"
           cy="284.82172"
           r="1.4693054" />
        <ellipse
           style="fill:#b3b3b3;fill-opacity:1;stroke:none;stroke-width:0;stroke-linecap:butt;stroke-linejoin:round;stroke-miterlimit:4;stroke-dasharray:none;stroke-opacity:1;paint-order:stroke markers fill"
           id="path895"
           cx="-124.73805"
           cy="215.15421"
           rx="0.76553029"
           ry="0.48991415"
           transform="matrix(0.71396932,-0.70017698,0.44191398,0.89705743,0,0)"
           inkscape:transform-center-x="-0.028628416"
           inkscape:transform-center-y="-0.020198975" />
        <ellipse
           style="fill:#b3b3b3;fill-opacity:1;stroke:none;stroke-width:0;stroke-linecap:butt;stroke-linejoin:round;stroke-miterlimit:4;stroke-dasharray:none;stroke-opacity:1;paint-order:stroke markers fill"
           id="path895-1"
           cx="-124.20986"
           cy="212.50131"
           rx="1.1417994"
           ry="0.73512673"
           transform="matrix(0.70719505,-0.7070185,0.4350935,0.90038528,0,0)"
           inkscape:transform-center-x="-0.042299882"
           inkscape:transform-center-y="-0.030419101" />
      </g>
    </g>
    <flowRoot
       xml:space="preserve"
       id="flowRoot956"
       style="font-style:normal;font-variant:normal;font-weight:normal;font-stretch:normal;font-size:40px;line-height:1.25;font-family:'Gill Sans Ultra Bold';-inkscape-font-specification:'Gill Sans Ultra Bold, ';letter-spacing:0px;word-spacing:0px;fill:#000000;fill-opacity:1;stroke:none"
       transform="matrix(0.26458333,0,0,0.26458333,0,275.83332)"><flowRegion
         id="flowRegion958"><rect
           id="rect960"
           width="78.413094"
           height="77.529205"
           x="1.5152289"
           y="1.8394467" /></flowRegion><flowPara
         id="flowPara962" /></flowRoot>    <g
       id="flowRoot964"
       style="font-style:normal;font-variant:normal;font-weight:bold;font-stretch:normal;font-size:40px;line-height:1.25;font-family:Bahnschrift;-inkscape-font-specification:'Bahnschrift, Bold';font-variant-ligatures:normal;font-variant-caps:normal;font-variant-numeric:normal;font-feature-settings:normal;text-align:start;letter-spacing:0px;word-spacing:0px;writing-mode:lr-tb;text-anchor:start;fill:#e61717;fill-opacity:1;stroke:#f1eeef;stroke-width:3.0999999;stroke-miterlimit:4;stroke-dasharray:none;stroke-opacity:1;paint-order:stroke markers fill"
       transform="matrix(0.18734464,0,0,0.18734464,6.3540772,272.52506)"
       aria-label="R">
      <path
         inkscape:connector-curvature="0"
         id="path855"
         style="font-style:normal;font-variant:normal;font-weight:bold;font-stretch:normal;font-size:80px;font-family:Bahnschrift;-inkscape-font-specification:'Bahnschrift, Bold';font-variant-ligatures:normal;font-variant-caps:normal;font-variant-numeric:normal;font-feature-settings:normal;text-align:start;writing-mode:lr-tb;text-anchor:start"
         d="m 10.865234,39.636719 h 19.765625 q 1.640625,0 2.890625,-0.820313 1.25,-0.820312 1.914063,-2.34375 0.703125,-1.523437 0.742187,-3.515625 v 0 q 0,-1.992187 -0.703125,-3.515625 -0.664062,-1.523437 -1.914062,-2.34375 -1.25,-0.820312 -2.929688,-0.820312 H 10.865234 v -10.3125 h 20.625 q 4.6875,0 8.242188,2.109375 3.554687,2.109375 5.507812,5.976562 1.953125,3.828125 1.953125,8.90625 v 0 q 0,5.078125 -1.953125,8.945313 -1.953125,3.828125 -5.546875,5.9375 -3.554687,2.109375 -8.203125,2.109375 h -20.625 z M 6.6074219,15.964844 H 17.310547 V 72.800781 H 6.6074219 Z m 16.2109371,32.226562 11.445313,-1.796875 15.3125,26.40625 h -12.96875 z" />
    </g>
    <g
       id="flowRoot964-0"
       style="font-style:normal;font-variant:normal;font-weight:bold;font-stretch:normal;font-size:40px;line-height:1.25;font-family:Bahnschrift;-inkscape-font-specification:'Bahnschrift, Bold';font-variant-ligatures:normal;font-variant-caps:normal;font-variant-numeric:normal;font-feature-settings:normal;text-align:start;letter-spacing:0px;word-spacing:0px;writing-mode:lr-tb;text-anchor:start;fill:#e61717;fill-opacity:1;stroke:#000000;stroke-width:3.0999999;stroke-miterlimit:4;stroke-dasharray:none;stroke-opacity:1;paint-order:stroke markers fill"
       transform="matrix(0.48811735,0,0,0.44160114,-40.465506,287.22324)"
       aria-label="G">
      <path
         inkscape:connector-curvature="0"
         id="path858"
         style="font-style:normal;font-variant:normal;font-weight:bold;font-stretch:normal;font-size:40px;font-family:Bahnschrift;-inkscape-font-specification:'Bahnschrift, Bold';font-variant-ligatures:normal;font-variant-caps:normal;font-variant-numeric:normal;font-feature-settings:normal;text-align:start;writing-mode:lr-tb;text-anchor:start;fill:#e24a6e;fill-opacity:1;stroke:#000000;stroke-width:1.61352038;stroke-miterlimit:4;stroke-dasharray:none;stroke-opacity:1"
         d="m 100.34617,7.0369328 v 2.887096 q 0,1.6468642 -0.670948,2.9074272 -0.660779,1.250397 -1.880678,1.941674 -1.2199,0.68111 -2.826101,0.68111 -1.616367,0 -2.856598,-0.640447 Q 90.88178,14.16318 90.200669,12.983944 89.529725,11.804708 89.529725,10.249335 V 5.8881948 q 0,-1.646864 0.660778,-2.897262 0.670945,-1.250397 1.890845,-1.931507 1.219899,-0.69127701 2.8261,-0.69127701 1.321558,0 2.439799,0.548955 1.118241,0.53878901 1.860347,1.53504101 0.752271,0.996251 1.016586,2.307643 v 0 h -3.009089 v 0 q -0.152487,-0.467628 -0.508291,-0.803101 -0.345638,-0.345638 -0.823432,-0.518457 -0.467628,-0.182985 -0.97592,-0.182985 -0.742105,0 -1.311392,0.325307 -0.55912,0.325306 -0.874261,0.92509 -0.304975,0.599784 -0.304975,1.382553 v 4.3611402 q 0,0.691277 0.315141,1.2199 0.315141,0.528623 0.894593,0.813266 0.579452,0.284643 1.341889,0.284643 0.752272,0 1.311392,-0.304974 0.569286,-0.315141 0.874261,-0.904759 0.304975,-0.589618 0.304975,-1.3927192 v -0.24398 h -2.236482 v -2.683779 z" />
    </g>
    <g
       id="flowRoot964-0-7"
       style="font-style:normal;font-variant:normal;font-weight:bold;font-stretch:normal;font-size:40px;line-height:1.25;font-family:Bahnschrift;-inkscape-font-specification:'Bahnschrift, Bold';font-variant-ligatures:normal;font-variant-caps:normal;font-variant-numeric:normal;font-feature-settings:normal;text-align:start;letter-spacing:0px;word-spacing:0px;writing-mode:lr-tb;text-anchor:start;fill:#e61717;fill-opacity:1;stroke:#000000;stroke-width:3.0999999;stroke-miterlimit:4;stroke-dasharray:none;stroke-opacity:1;paint-order:stroke markers fill"
       transform="matrix(0.25427189,0,0,0.22734046,12.49392,285.76651)"
       aria-label="C">
      <path
         inkscape:connector-curvature="0"
         id="path861"
         style="font-style:normal;font-variant:normal;font-weight:bold;font-stretch:normal;font-size:40px;font-family:Bahnschrift;-inkscape-font-specification:'Bahnschrift, Bold';font-variant-ligatures:normal;font-variant-caps:normal;font-variant-numeric:normal;font-feature-settings:normal;text-align:start;writing-mode:lr-tb;text-anchor:start;fill:#8480c6;fill-opacity:1;stroke:#000000;stroke-width:3.0999999;stroke-miterlimit:4;stroke-dasharray:none;stroke-opacity:1"
         d="m 13.169922,36.335937 q -3.2421876,0 -5.5468751,-1.230468 -2.3046875,-1.25 -3.515625,-3.613282 Q 2.8964844,29.109375 2.8964844,25.75 v -7.792969 q 0,-3.359375 1.2109375,-5.722656 1.2109375,-2.3828125 3.515625,-3.6328125 2.3046875,-1.25 5.5468751,-1.25 2.675781,0 4.785156,1.1523438 2.109375,1.1523437 3.476563,3.3593747 1.386718,2.1875 1.914062,5.292969 v 0 h -5.546875 v 0 q -0.3125,-1.40625 -0.976562,-2.402344 -0.644532,-0.996093 -1.582032,-1.523437 -0.917968,-0.527344 -2.070312,-0.527344 -1.503906,0 -2.558594,0.625 -1.0546874,0.605469 -1.6210936,1.796875 -0.546875,1.171875 -0.546875,2.832031 V 25.75 q 0,1.660156 0.546875,2.832031 0.5664062,1.171875 1.6210936,1.796875 1.054688,0.605469 2.558594,0.605469 1.171875,0 2.109375,-0.507813 0.9375,-0.527343 1.582031,-1.523437 0.644531,-0.996094 0.9375,-2.421875 v 0 h 5.546875 v 0 q -0.546875,3.105469 -1.933594,5.3125 -1.367187,2.1875 -3.476562,3.339844 -2.089844,1.152343 -4.765625,1.152343 z" />
    </g>
  </g>
</svg>
