<?xml version="1.0" encoding="UTF-8" standalone="no"?>
<svg
   xmlns:dc="http://purl.org/dc/elements/1.1/"
   xmlns:cc="http://creativecommons.org/ns#"
   xmlns:rdf="http://www.w3.org/1999/02/22-rdf-syntax-ns#"
   xmlns:svg="http://www.w3.org/2000/svg"
   xmlns="http://www.w3.org/2000/svg"
   xmlns:sodipodi="http://sodipodi.sourceforge.net/DTD/sodipodi-0.dtd"
   xmlns:inkscape="http://www.inkscape.org/namespaces/inkscape"
   height="24"
   viewBox="0 -960 960 960"
   width="24"
   version="1.1"
   id="svg4"
   sodipodi:docname="maleIcon.svg"
   inkscape:version="0.92.3 (2405546, 2018-03-11)">
  <metadata
     id="metadata10">
    <rdf:RDF>
      <cc:Work
         rdf:about="">
        <dc:format>image/svg+xml</dc:format>
        <dc:type
           rdf:resource="http://purl.org/dc/dcmitype/StillImage" />
        <dc:title />
      </cc:Work>
    </rdf:RDF>
  </metadata>
  <defs
     id="defs8" />
  <sodipodi:namedview
     pagecolor="#ffffff"
     bordercolor="#666666"
     borderopacity="1"
     objecttolerance="10"
     gridtolerance="10"
     guidetolerance="10"
     inkscape:pageopacity="0"
     inkscape:pageshadow="2"
     inkscape:window-width="958"
     inkscape:window-height="1048"
     id="namedview6"
     showgrid="false"
     inkscape:pagecheckerboard="true"
     inkscape:zoom="9.8333333"
     inkscape:cx="6.2033899"
     inkscape:cy="13.423729"
     inkscape:window-x="-7"
     inkscape:window-y="0"
     inkscape:window-maximized="0"
     inkscape:current-layer="svg4" />
  <path
     d="m 922.28043,-918.21263 v 331.71032 h -110.5701 v -142.35901 l -219.75809,218.37596 q 26.2604,38.69954 40.08166,82.23652 13.82126,43.53698 13.82126,90.52928 0,127.15562 -88.45609,215.6117 -88.45608,88.456088 -215.61171,88.456088 -127.15562,0 -215.6117,-88.456088 -88.456091,-88.45608 -88.456091,-215.6117 0,-127.15563 88.456091,-215.61171 88.45608,-88.45609 215.6117,-88.45609 45.61017,0 89.83822,13.13019 44.22804,13.13021 81.54545,40.77273 L 732.92912,-807.64253 H 590.57011 v -110.5701 z m -580.49307,386.99537 q -80.16332,0 -136.8305,56.66719 -56.66719,56.66718 -56.66719,136.83051 0,80.16332 56.66719,136.8305 56.66718,56.66719 136.8305,56.66719 80.16333,0 136.83051,-56.66719 56.66719,-56.66718 56.66719,-136.8305 0,-80.16333 -56.66719,-136.83051 -56.66718,-56.66719 -136.83051,-56.66719 z"
     id="path2"
     style="fill:#8480c6;fill-opacity:1;stroke:#000000;stroke-width:27.64252663;stroke-miterlimit:4;stroke-dasharray:none;stroke-opacity:1"
     inkscape:connector-curvature="0" />
</svg>
